<svg width="360" height="762" viewBox="0 0 360 762" fill="none" xmlns="http://www.w3.org/2000/svg">
<mask id="mask0_13846_8284" style="mask-type:alpha" maskUnits="userSpaceOnUse" x="0" y="0" width="360" height="762">
<rect width="360" height="762" transform="matrix(-1 0 0 1 360 0)" fill="#24282C"/>
</mask>
<g mask="url(#mask0_13846_8284)">
<g style="mix-blend-mode:soft-light" opacity="0.2">
<path d="M937.461 551.487C992.551 508.264 1028 439.849 1028 363.284C1028 232.875 925.007 126.671 798.54 126.671C738.66 126.671 684.05 150.382 643.092 189.406H642.853L245.011 599.155C231.119 613.48 208.604 613.48 194.951 599.155C188.245 592.24 184.652 583.101 184.652 573.222C184.652 563.342 188.245 554.204 194.951 547.288L426.567 308.453C453.393 280.791 467.045 242.508 463.932 203.484C460.818 164.46 441.417 128.894 410.519 106.172C358.783 67.8888 288.843 73.8165 243.813 120.25L142.497 224.725L106.808 187.924V327.471H242.137L208.843 293.14L310.16 188.665C322.615 175.822 341.777 174.34 356.148 184.713C367.884 193.358 370.28 205.213 370.759 211.388C371.238 217.809 370.759 229.911 360.459 240.285L128.844 479.12C104.413 504.313 91 537.656 91 573.222C91 608.788 104.413 642.131 128.844 667.323C153.994 693.257 187.047 706.347 220.101 706.347C253.155 706.347 286.208 693.257 311.358 667.323L571.715 398.85C575.787 426.759 584.649 452.94 597.344 476.897L314.711 768.34L650.278 543.83C681.176 570.999 719.259 589.77 761.175 596.685L524.291 840.954L431.836 936.291L508.722 909.616L722.852 1025.95C711.355 1034.1 697.703 1038.79 682.852 1038.79C676.146 1038.79 669.439 1037.8 663.451 1036.07C671.835 1066.7 699.379 1089.17 731.714 1089.17C754.469 1089.17 774.588 1078.06 787.522 1061.02L816.983 1077.07L833.51 1085.96C839.977 1089.42 844.528 1096.34 844.528 1103.75C844.528 1110.91 843.57 1117.58 841.893 1124C871.594 1115.36 893.39 1086.95 893.39 1053.61C893.39 1027.68 880.216 1004.95 860.336 992.11V991.616L854.109 988.158L847.402 984.453L835.187 977.785C848.121 964.2 865.845 955.803 885.725 955.803C892.432 955.803 899.138 956.791 905.126 958.519C896.743 927.893 869.198 905.418 836.863 905.418C809.558 905.418 786.085 921.472 774.109 944.688L631.116 866.888L937.461 550.993V551.487Z" fill="url(#paint0_linear_13846_8284)"/>
</g>
</g>
<defs>
<linearGradient id="paint0_linear_13846_8284" x1="78.238" y1="329.598" x2="1028" y2="322.62" gradientUnits="userSpaceOnUse">
<stop stop-color="#D9D9D9" stop-opacity="0.96"/>
<stop offset="1" stop-color="#D9D9D9" stop-opacity="0"/>
</linearGradient>
</defs>
</svg>
