<svg width="1440" height="458" viewBox="0 0 1440 458" fill="none" xmlns="http://www.w3.org/2000/svg">
<mask id="mask0_13604_907" style="mask-type:alpha" maskUnits="userSpaceOnUse" x="0" y="0" width="1440" height="458">
<rect width="1440" height="458" transform="matrix(-1 0 0 1 1440 0)" fill="#24282C"/>
</mask>
<g mask="url(#mask0_13604_907)">
<g style="mix-blend-mode:soft-light" opacity="0.2">
<path d="M1620.21 538.393C1702.22 474.142 1755 372.441 1755 258.624C1755 64.7673 1601.66 -93.1081 1413.38 -93.1081C1324.23 -93.1081 1242.93 -57.8615 1181.95 0.14856H1181.6L589.291 609.254C568.608 630.549 535.088 630.549 514.762 609.254C504.778 598.973 499.429 585.389 499.429 570.703C499.429 556.017 504.778 542.432 514.762 532.152L859.59 177.116C899.528 135.995 919.854 79.0862 915.218 21.0762C910.583 -36.9338 881.699 -89.8036 835.698 -123.582C758.673 -180.49 654.548 -171.679 587.508 -102.654L436.668 52.6513L383.535 -2.05441V205.387H585.011L535.445 154.352L686.284 -0.952988C704.827 -20.0449 733.355 -22.2478 754.751 -6.82741C772.224 6.02292 775.79 23.6463 776.503 32.8251C777.216 42.371 776.503 60.3614 761.169 75.7818L416.342 430.818C379.969 468.267 360 517.833 360 570.703C360 623.573 379.969 673.138 416.342 710.588C453.784 749.139 502.995 768.598 552.205 768.598C601.415 768.598 650.625 749.139 688.068 710.588L1075.69 311.493C1081.75 352.982 1094.94 391.9 1113.84 427.513L693.06 860.753L1192.65 527.012C1238.65 567.398 1295.35 595.302 1357.75 605.582L1005.08 968.696L867.435 1110.42L981.902 1070.76L1300.7 1243.69C1283.58 1255.81 1263.26 1262.78 1241.15 1262.78C1231.16 1262.78 1221.18 1261.32 1212.26 1258.75C1224.74 1304.27 1265.75 1337.68 1313.89 1337.68C1347.77 1337.68 1377.72 1321.16 1396.98 1295.83L1440.84 1319.69L1465.44 1332.91C1475.07 1338.05 1481.85 1348.33 1481.85 1359.35C1481.85 1369.99 1480.42 1379.91 1477.93 1389.45C1522.14 1376.6 1554.59 1334.38 1554.59 1284.81C1554.59 1246.26 1534.98 1212.48 1505.38 1193.39V1192.66L1496.11 1187.52L1486.13 1182.01L1467.94 1172.1C1487.2 1151.9 1513.59 1139.42 1543.18 1139.42C1553.17 1139.42 1563.15 1140.89 1572.07 1143.46C1559.59 1097.93 1518.58 1064.52 1470.44 1064.52C1429.79 1064.52 1394.84 1088.39 1377.01 1122.9L1164.12 1007.25L1620.21 537.659V538.393Z" fill="url(#paint0_linear_13604_907)"/>
</g>
</g>
<defs>
<linearGradient id="paint0_linear_13604_907" x1="341" y1="208.548" x2="1755" y2="198.144" gradientUnits="userSpaceOnUse">
<stop stop-color="#D9D9D9" stop-opacity="0.96"/>
<stop offset="1" stop-color="#D9D9D9" stop-opacity="0"/>
</linearGradient>
</defs>
</svg>
