<svg width="360" height="710" viewBox="0 0 360 710" fill="none" xmlns="http://www.w3.org/2000/svg">
<mask id="mask0_13854_8719" style="mask-type:alpha" maskUnits="userSpaceOnUse" x="0" y="0" width="360" height="710">
<rect width="360" height="710" transform="matrix(-1 0 0 1 360 0)" fill="#24282C"/>
</mask>
<g mask="url(#mask0_13854_8719)">
<g style="mix-blend-mode:soft-light" opacity="0.2">
<path d="M862.461 533.487C917.551 490.264 953 421.849 953 345.284C953 214.875 850.007 108.671 723.54 108.671C663.66 108.671 609.05 132.382 568.092 171.406H567.853L170.011 581.155C156.119 595.48 133.604 595.48 119.951 581.155C113.245 574.24 109.652 565.101 109.652 555.222C109.652 545.342 113.245 536.204 119.951 529.288L351.567 290.453C378.393 262.791 392.045 224.508 388.932 185.484C385.818 146.46 366.417 110.894 335.519 88.1716C283.783 49.8888 213.843 55.8165 168.813 102.25L67.4966 206.725L31.8083 169.924V309.471H167.137L133.843 275.14L235.16 170.665C247.615 157.822 266.777 156.34 281.148 166.713C292.884 175.358 295.28 187.213 295.759 193.388C296.238 199.809 295.759 211.911 285.459 222.285L53.844 461.12C29.413 486.313 16 519.656 16 555.222C16 590.788 29.413 624.131 53.844 649.323C78.9936 675.257 112.047 688.347 145.101 688.347C178.155 688.347 211.208 675.257 236.358 649.323L496.715 380.85C500.787 408.759 509.649 434.94 522.344 458.897L239.711 750.34L575.278 525.83C606.176 552.999 644.259 571.77 686.175 578.685L449.291 822.954L356.836 918.291L433.722 891.616L647.852 1007.95C636.355 1016.1 622.703 1020.79 607.852 1020.79C601.146 1020.79 594.439 1019.8 588.451 1018.07C596.835 1048.7 624.379 1071.17 656.714 1071.17C679.469 1071.17 699.588 1060.06 712.522 1043.02L741.983 1059.07L758.51 1067.96C764.977 1071.42 769.528 1078.34 769.528 1085.75C769.528 1092.91 768.57 1099.58 766.893 1106C796.594 1097.36 818.39 1068.95 818.39 1035.61C818.39 1009.68 805.216 986.953 785.336 974.11V973.616L779.109 970.158L772.402 966.453L760.187 959.785C773.121 946.2 790.845 937.803 810.725 937.803C817.432 937.803 824.138 938.791 830.126 940.519C821.743 909.893 794.198 887.418 761.863 887.418C734.558 887.418 711.085 903.472 699.109 926.688L556.116 848.888L862.461 532.993V533.487Z" fill="url(#paint0_linear_13854_8719)"/>
</g>
</g>
<defs>
<linearGradient id="paint0_linear_13854_8719" x1="3.23799" y1="311.598" x2="953.002" y2="304.62" gradientUnits="userSpaceOnUse">
<stop stop-color="#D9D9D9" stop-opacity="0.96"/>
<stop offset="1" stop-color="#D9D9D9" stop-opacity="0"/>
</linearGradient>
</defs>
</svg>
